<svg width="18" height="20" xmlns="http://www.w3.org/2000/svg" xmlns:xlink="http://www.w3.org/1999/xlink" xmlns:svgjs="http://svgjs.com/svgjs" viewBox="0 0 17.999 20" fill="#4c4c4c"><svg xmlns="http://www.w3.org/2000/svg" width="18" height="20" viewBox="0 0 17.999 20"><path paint-order="stroke fill markers" fill-rule="evenodd" d="M16 2h-1V0h-2v2H5V0H3v2H2C.892 2 .011 2.9.011 4l-.01 14a2 2 0 0 0 2 2h13.998c1.102 0 2-.9 2-2V4c0-1.1-.898-2-2-2zm0 16H2V7h14v11zm-5-5H4v2h7v-2zm3-4H4v2h10V9z"/></svg></svg>