<svg width="24" height="13" xmlns="http://www.w3.org/2000/svg" xmlns:xlink="http://www.w3.org/1999/xlink" xmlns:svgjs="http://svgjs.com/svgjs" viewBox="0.083 0 23.834 13" fill="#4c4c4c"><svg xmlns="http://www.w3.org/2000/svg" width="24" height="13" viewBox="1 1 22.001 12"><path paint-order="stroke fill markers" fill-rule="evenodd" d="M23 3c0 1.1-.9 2-2 2-.18 0-.35-.02-.51-.07l-3.56 3.55c.05.16.07.34.07.52 0 1.1-.9 2-2 2s-2-.9-2-2c0-.18.02-.36.07-.52l-2.55-2.55c-.16.05-.34.07-.52.07s-.36-.02-.52-.07l-4.55 4.56c.05.16.07.33.07.51 0 1.1-.9 2-2 2s-2-.9-2-2 .9-2 2-2c.18 0 .35.02.51.07l4.56-4.55C8.02 4.36 8 4.18 8 4c0-1.1.9-2 2-2a2.006 2.006 0 0 1 1.93 2.52l2.55 2.55c.16-.05.34-.07.52-.07s.361.02.52.07l3.55-3.56C19.02 3.35 19 3.18 19 3c0-1.1.9-2 2-2s2 .9 2 2z"/></svg></svg>