<svg width="22" height="22" xmlns="http://www.w3.org/2000/svg" xmlns:xlink="http://www.w3.org/1999/xlink" xmlns:svgjs="http://svgjs.com/svgjs" fill="#4c4c4c"><svg xmlns="http://www.w3.org/2000/svg" width="22" height="22" viewBox="0 1 21 21"><path paint-order="stroke fill markers" fill-rule="evenodd" d="M18.5 11H17V7c0-1.1-.9-2-2-2h-4V3.5a2.5 2.5 0 0 0-5 0V5H2C.9 5 .011 5.9.011 7v3.8h1.49a2.7 2.7 0 0 1 0 5.4H0V20c0 1.1.898 2 2 2h3.8v-1.5c0-1.49 1.21-2.7 2.698-2.7 1.491 0 2.7 1.21 2.7 2.7V22H15c1.1 0 2-.9 2-2v-4h1.5a2.501 2.501 0 0 0 0-5z"/></svg></svg>